<?xml version="1.0" encoding="utf-8"?>
<!DOCTYPE svg PUBLIC "-//W3C//DTD SVG 1.0//EN" "http://www.w3.org/TR/2001/REC-SVG-20010904/DTD/svg10.dtd">
<svg version="1.0" xmlns="http://www.w3.org/2000/svg" width="352px" height="88px" viewBox="0 0 352 88" preserveAspectRatio="xMidYMid meet">
 <g fill="#373643">
  <path d="M72.6 68.6 c-2.1 -0.8 -4.6 -2.2 -5.5 -3 -1.3 -1.4 -1.4 -1.8 0 -3.1 1.3 -1.3 1.9 -1.2 5.6 0.6 5.8 2.8 11.2 1.4 13.6 -3.6 1.8 -3.9 1.3 -4.2 -2.9 -2 -6.5 3.4 -14.5 0.6 -17.5 -5.9 -3.3 -7.3 -1.8 -15.1 3.6 -19.4 3.1 -2.4 11.1 -3 14.6 -1.1 1.5 0.7 2.4 0.7 3.5 -0.1 0.7 -0.7 2.1 -1 2.9 -0.6 2.2 0.8 2.2 28.4 0 32.6 -2.8 5.4 -11.2 8 -17.9 5.6z m11.9 -17.1 c3.6 -3.5 3.5 -11.2 0 -14.5 -3.7 -3.4 -9 -3.3 -12.1 0.4 -3.1 3.6 -3.3 10.2 -0.3 14 2.8 3.6 8.9 3.7 12.4 0.1z"/>
  <path d="M134.6 66.5 c-0.3 -0.9 -0.6 -9 -0.6 -18 0 -13.6 0.3 -16.5 1.6 -17.6 1.2 -1 2 -1 3.5 -0.1 1.5 0.9 2.5 1 4 0.1 5.3 -2.8 13.7 -0.5 16.9 4.6 2.5 4 2.7 12.3 0.5 16.6 -3.2 6.1 -11.3 8.6 -17.5 5.4 l-2.9 -1.5 -0.3 5.8 c-0.3 4.9 -0.6 5.7 -2.4 6 -1.3 0.2 -2.4 -0.4 -2.8 -1.3z m18.4 -13.5 c2.5 -1.3 4.3 -7.3 3.6 -11.4 -1.2 -6.5 -8.2 -9.1 -14 -5.3 -2.3 1.6 -2.6 2.4 -2.6 7.5 0 3.1 0.4 6.2 0.8 6.8 2.1 3.1 8.5 4.4 12.2 2.4z"/>
  <path d="M25 56.8 c-6 -3.1 -9 -8.3 -9 -16.1 0 -10.4 5.4 -17 15.2 -18.3 5.1 -0.7 10.4 0.7 14.2 3.7 5.6 4.4 1.9 7.4 -4 3.4 -7.3 -5 -16.8 -2 -19.5 6.2 -1.5 4.6 -0.2 10.9 3 14.5 3.4 3.8 10.1 4.9 14.9 2.4 2.8 -1.4 3.2 -2.2 3.2 -5.6 l0 -4 -5 0 c-3.7 0 -5.2 -0.4 -5.7 -1.6 -0.9 -2.4 1.5 -3.4 8.2 -3.4 8.2 0 8.7 0.5 8.3 8 -0.3 6.3 -0.4 6.5 -4.5 9.4 -5.9 4.1 -13.1 4.6 -19.3 1.4z"/>
  <path d="M105.4 57.9 c-6.4 -1.8 -10.9 -9 -6.7 -10.6 1.1 -0.4 2.3 0.3 3.7 2 3.6 4.5 10.7 5.9 17.5 3.6 3.6 -1.3 5.2 -5.2 3 -7.5 -0.8 -0.7 -5.3 -1.9 -9.9 -2.5 -9.2 -1.2 -13.4 -2.9 -15 -5.8 -6.5 -12.2 18.1 -21 28.5 -10.1 2.3 2.4 2.6 3.2 1.5 4.5 -1.7 2.1 -3.7 1.9 -5 -0.5 -2.2 -4.1 -14.1 -4.9 -18.2 -1.3 -2.1 1.9 -2.3 4.6 -0.4 6.2 0.7 0.6 5.1 1.6 9.7 2.1 13.1 1.6 15.9 3.3 15.9 9.9 0 4 -4.2 8.8 -8.8 10.1 -4.4 1.2 -11.5 1.2 -15.8 -0.1z"/>
  <path d="M172.4 57.1 c-3.3 -2 -6.4 -8.3 -6.4 -12.9 0.1 -4.6 3.6 -10.9 7.1 -12.7 3.7 -2 10.4 -2.2 12.5 -0.4 1.2 0.9 2 0.9 3.8 -0.1 4.1 -2.2 4.6 -0.8 4.6 13.6 l0 13.4 -2.4 0 c-1.3 0 -2.6 -0.5 -2.8 -1.1 -0.2 -0.6 -1.4 -0.5 -3.3 0.5 -4 2.1 -9.3 2 -13.1 -0.3z m14 -5.2 c2.2 -1.7 2.6 -2.8 2.6 -7.3 0 -6.5 -3 -10 -8.7 -10 -7.3 0 -11.2 10.4 -6.2 16.8 2.6 3.3 8.4 3.6 12.3 0.5z"/>
  <path d="M207.3 57.5 c-9.2 -4 -9.9 -20.2 -1.1 -25.9 2.2 -1.4 5.5 -1.9 11 -1.7 3.7 0.1 9.1 5.1 7.8 7.1 -0.8 1.3 -1.5 1.2 -5.4 -0.9 -3.7 -2 -5 -2.3 -7.7 -1.5 -6.6 1.9 -8.8 11.7 -3.8 17 2.6 2.8 9.2 3.2 12.3 0.9 1.1 -0.8 2.8 -1.5 3.9 -1.5 2.9 0 1.7 3.1 -2.2 5.7 -3.9 2.7 -9.9 3 -14.8 0.8z"/>
  <path d="M235.8 56.8 c-6.6 -3.8 -8.7 -12.2 -4.8 -19.8 6.4 -12.5 26.9 -7.9 25.8 5.8 l-0.3 3.7 -10.7 0.3 c-11.8 0.3 -13.2 1.2 -8.2 5.1 3.2 2.5 9 2.8 12.2 0.5 1.8 -1.2 2.6 -1.3 3.7 -0.4 2.2 1.8 1.8 2.8 -1.7 5 -4.4 2.7 -11.2 2.6 -16 -0.2z m16.2 -15.7 c0 -3 -3.2 -6.1 -7.1 -6.7 -2.8 -0.5 -4.1 -0.1 -6.7 2.1 -1.8 1.5 -3.2 3.5 -3.2 4.6 0 1.7 0.8 1.9 8.5 1.9 7.7 0 8.5 -0.2 8.5 -1.9z"/>
  <path d="M55.7 57.4 c-0.4 -0.4 -0.7 -6.2 -0.7 -12.9 0 -12.8 0.9 -15.5 4.5 -14.1 1.3 0.5 1.5 2.6 1.3 13.8 -0.3 12.5 -0.4 13.3 -2.3 13.6 -1.2 0.2 -2.4 0 -2.8 -0.4z"/>
  <path d="M55.5 26 c-1 -1.7 2 -4.4 4 -3.6 0.9 0.3 1.5 1.4 1.3 2.3 -0.4 2.1 -4.3 3 -5.3 1.3z"/>
 </g>
 <g fill="#19ca96">
  <path d="M279.7 50.9 c-1.6 -0.9 -1.7 -2 -1.1 -9.5 l0.7 -8.4 -7.9 0 c-9.2 0 -10.7 -0.7 -10.2 -4.6 l0.3 -2.9 11 -0.3 c16.4 -0.4 15.2 -1.5 14.3 13 -0.9 13.7 -2 15.7 -7.1 12.7z"/>
  <path d="M293.9 38 c-1.4 -0.8 -1.6 -2.3 -1.1 -9.5 l0.5 -8.5 -7.2 0 c-4 0 -8.1 -0.5 -9.2 -1 -2.4 -1.3 -2.5 -5.6 -0.1 -6.8 0.9 -0.5 7 -0.7 13.4 -0.4 l11.7 0.4 -0.5 8.7 c-0.7 12.1 -1.4 17.1 -2.4 17.1 -0.5 0 -1.4 0.2 -2.2 0.5 -0.7 0.2 -2 0 -2.9 -0.5z"/>
 </g>
</svg>