<?xml version="1.0" ?><!DOCTYPE svg  PUBLIC '-//W3C//DTD SVG 1.1//EN'  'http://www.w3.org/Graphics/SVG/1.1/DTD/svg11.dtd'><svg height="8.4666mm" style="shape-rendering:geometricPrecision; text-rendering:geometricPrecision; image-rendering:optimizeQuality; fill-rule:evenodd; clip-rule:evenodd" version="1.1" viewBox="0 0 846.66 846.66" width="8.4666mm" xml:space="preserve" xmlns="http://www.w3.org/2000/svg" xmlns:xlink="http://www.w3.org/1999/xlink"><defs><style type="text/css">
   <![CDATA[
    .fil0 {fill:black;fill-rule:nonzero}
   ]]>
  </style></defs><g id="Layer_x0020_1"><path class="fil0" d="M301.61 563.27c-19.33,-1.24 -38.65,-4.46 -57.31,-9.64l-179.62 132.75c-16.19,12 -38.06,-3.9 -32.18,-22.84l65.61 -208.67c-37.3,-48.59 -57.46,-107.99 -57.46,-169.26 0,-153.64 124.57,-278.21 278.21,-278.21 141.71,0 261.01,106.85 276.45,247.56l199.01 0c11.5,0 20.82,9.32 20.82,20.82l0 323.53c0,11.5 -9.32,20.82 -20.82,20.82l-14.93 0 0 198.37c0,21.3 -28.26,28.63 -38.83,10.44l-144.74 -208.81 -273.39 0c-11.5,0 -20.82,-9.32 -20.82,-20.82l0 -36.04zm242.59 -60.23c-0.62,-21.59 0.92,-37.49 15.56,-55.01 14.62,-17.56 43.38,-32.07 43.38,-56.66 0,-23.72 -20.9,-41.26 -43.97,-41.26 -28.64,0 -41.51,20.59 -45.56,46.52l-28.67 -3.51c5.15,-42.16 31.06,-65.95 73.75,-65.95 37.54,0 73.12,21.63 73.12,62.34 0,39.98 -33.52,50.59 -52.3,76.09 -7.96,10.82 -8.3,24.52 -8.55,37.44l-26.76 0zm-5.1 56.07l0 -31.86 31.86 0 0 31.86 -31.86 0zm14.43 -304.15c-15.22,-117.72 -115.86,-205.93 -234.67,-205.93 -130.65,0 -236.58,105.93 -236.58,236.58 0,55.7 19.14,108.74 54.84,151.51 4.43,5.24 6.17,12.56 3.97,19.59l-49.82 158.41 136.51 -100.89c5.2,-3.93 12.18,-5.35 18.87,-3.21 17.87,5.73 36.24,9.3 54.96,10.59l0 -245.83c0,-11.5 9.32,-20.82 20.82,-20.82l231.1 0zm219.97 41.64l-430.26 0 0 281.9 263.4 0.06c6.58,0.01 13.05,3.14 17.07,8.96l114.04 164.52 0 -152.73c0,-11.49 9.33,-20.81 20.82,-20.81l14.93 0 0 -281.9z"/></g></svg>